<svg xmlns="http://www.w3.org/2000/svg" width="52" height="42" viewBox="0 0 52 42" fill="none">
<path d="M51.7866 13.345C51.4326 13.5181 44.6017 19.1019 41.5788 17.6499C41.2899 17.5122 41.1557 17.04 40.7081 17.04C40.5454 17.04 40.1386 17.0754 39.7724 17.6775C39.2354 18.5589 36.7902 21.5574 36.3305 21.3686C36.2654 21.341 36.005 20.9869 36.2735 19.3262C36.3752 18.7084 36.0375 18.3267 35.7202 18.2244C34.8821 17.9569 34.1905 19.0075 34.1905 19.0075C31.5419 22.6238 30.5289 22.6514 30.3458 22.5097C30.1464 22.3563 31.3019 19.338 31.3914 19.0232C31.4524 18.8422 31.7169 17.886 30.8422 17.8113C30.2929 17.764 29.9267 18.1851 29.6948 18.5983L29.6907 18.6061C29.3531 19.1098 28.9137 19.9087 28.1773 21.1403C26.5621 23.8476 25.2969 24.4497 24.9103 24.4851C24.7924 24.4969 24.3855 24.1034 24.1048 23.2534C26.082 21.3686 29.3734 17.2564 27.746 14.5373C27.3351 13.8408 26.5296 13.5653 25.6549 13.8133C24.6418 14.1005 23.6532 15.0252 23.047 16.4025C22.4001 17.8821 21.9403 20.3926 22.1519 22.5412C18.0428 25.8112 15.3983 25.4571 15.3373 25.4649C15.3495 25.0045 15.3657 24.5323 15.3861 24.0483C18.1038 20.9435 20.7849 15.1 22.2618 10.9603C23.82 6.58064 24.3855 2.93677 23.7915 1.21321C23.5148 0.316025 22.4042 -0.742501 20.1584 0.737075C18.7792 1.64607 17.1233 4.16057 15.3901 8.98496C13.6123 13.9352 13.2013 21.3686 13.2542 23.0134C12.9775 23.2889 7.10267 30.1004 0.255488 28.184C-0.399533 28.003 0.104955 29.7974 2.94474 30.246C6.94405 30.8795 10.569 28.3651 13.1525 26.1536C13.0834 29.3567 13.1688 33.0989 13.8563 36.7152C14.3974 39.5485 16.0858 42 17.7906 42C20.0282 42 20.3781 38.4112 20.195 36.1132C19.9346 32.7684 18.177 29.4511 16.7897 27.1098C18.8849 26.854 20.9273 25.701 22.5995 24.4811C22.9209 25.28 23.4172 25.9096 24.1292 26.2283C26.1064 27.0547 28.7428 23.5171 28.7591 23.4974C29.6704 24.8944 31.6803 24.0759 32.9374 23.0803C33.3117 22.8088 33.8853 22.2107 34.4468 21.5732C34.4508 21.5889 34.5322 22.9583 35.6673 23.2889C36.3101 23.4777 37.0059 23.2298 37.8643 22.5372C39.1133 21.5535 40.7244 19.3184 40.8384 19.1216C41.2086 19.2672 46.3592 20.7665 51.3431 14.8599C52.0876 13.9943 52.1446 13.1718 51.7866 13.345ZM18.474 7.17874C19.3081 5.31747 20.1014 4.12515 20.6222 3.44833C21.2121 2.67312 21.623 2.35438 21.8061 2.25207C21.8671 2.43308 21.9647 3.01153 21.6881 4.58949C21.44 6.00219 20.9436 7.84771 20.3049 9.79947C18.4049 15.6037 16.7043 18.7202 15.5814 20.3533C15.6261 19.6253 15.679 18.8855 15.736 18.1339C16.0696 13.8133 17.2942 9.81128 18.474 7.17874ZM17.8353 34.2008C18.6367 36.9041 18.47 40.4968 17.6075 39.6705C16.0492 38.1791 15.6221 34.3188 15.3901 31.0527C15.3454 30.3916 15.3169 29.5967 15.3088 28.6956C16.4154 30.3719 17.282 32.1388 17.8353 34.2008ZM24.2228 18.6652C24.711 16.8668 25.7281 15.4306 25.9925 15.4777C26.2529 15.525 26.3261 15.9067 26.2651 16.4025C26.1919 17.0124 25.2805 19.338 23.8403 21.0183C23.8647 20.3415 23.9827 19.5584 24.2228 18.6652Z" fill="white"/>
</svg>